<svg id="Layer_1" xmlns="http://www.w3.org/2000/svg" viewBox="0 0 598.29 103.04"><title>honestswap_logo</title><path d="M174.42,80.56V60.28H149.27V80.56h-8v-49h8V52.86h25.15V31.59h8v49Z"/><path d="M231.34,62c0,11.2-7.66,18.89-18.78,18.89S193.71,73.15,193.71,62s7.67-18.89,18.85-18.89S231.34,50.69,231.34,62ZM201.51,62c0,7.21,4.54,12.11,11.05,12.11s11-4.9,11-12.11-4.55-12-11-12S201.51,54.89,201.51,62Z"/><path d="M276.67,57.41V80.56h-7.8V59.65c0-5.6-3.25-9-8.68-9-6,.07-9.69,4.34-10.23,10.14v19.8h-7.8V43.34H250v7.14c2.57-5.18,7.18-7.42,13.29-7.42C271.65,43.06,276.67,48.52,276.67,57.41Z"/><path d="M321.52,65H294.27c1.22,5.74,5.49,9.31,11.19,9.31A13.82,13.82,0,0,0,315.63,70l4.13,4.55c-3.52,4-8.68,6.29-14.91,6.29-11.12,0-18.44-7.62-18.44-18.82s7.52-18.89,18.23-19C317.32,43.06,322.47,51.6,321.52,65Zm-6.77-5.87c-.28-6-4.14-9.66-10-9.66-5.69,0-9.69,3.71-10.58,9.66Z"/><path d="M356.92,46.77l-2.84,5.95a20.75,20.75,0,0,0-10.38-3.29c-3.05,0-5.28,1-5.28,3.71,0,6.86,19.18,3.15,19.11,16.65,0,7.63-6.57,11-13.83,11-5.28,0-10.91-1.82-14.51-5.17L332,69.93A19.3,19.3,0,0,0,344,74.55c3.32,0,5.9-1.19,5.9-4,0-7.63-19-3.36-18.92-16.79C331,46.21,337.4,43,344.31,43A22.25,22.25,0,0,1,356.92,46.77Z"/><path d="M389.67,78.19a17,17,0,0,1-8.88,2.72c-5.42,0-10.1-3.22-10.1-10.84V50.76h-5.08v-6h5.08V34.53h7.73V44.74h10.64v6H378.42V68.6c0,3.85,1.42,5,3.86,5A12.29,12.29,0,0,0,387.71,72Z"/><path d="M436,36.28l-3.32,7.27A27.78,27.78,0,0,0,418.74,39c-4.68,0-7.72,1.82-7.72,5.1,0,10.71,25.62,5,25.55,22.6,0,8.75-7.45,14.13-17.89,14.13a28.72,28.72,0,0,1-19.39-7.76l3.45-7.14c4.88,4.62,11,7.14,16.07,7.14,5.56,0,8.88-2.17,8.88-6,0-10.91-25.62-4.83-25.62-22.25,0-8.39,7-13.64,17.28-13.64A30.19,30.19,0,0,1,436,36.28Z"/><path d="M483.23,80.56,474.08,53l-9.16,27.56h-8L443.64,43.34h8L461,72.59l9.09-29.25h8.06l9.16,29.25,9.22-29.25h7.93L491.3,80.56Z"/><path d="M536.21,76c-2.57,3.28-6.71,4.89-11.93,4.89-7.79,0-12.68-5-12.68-11.54,0-6.79,4.95-11.12,13.63-11.19h10.91V57.06c0-4.69-2.91-7.49-8.6-7.49a18.63,18.63,0,0,0-10.65,3.78l-3.19-5.6c5-3.08,8.68-4.69,15.53-4.69,9.29,0,14.51,4.9,14.58,13.09l.07,24.41h-7.67Zm-.07-8.54V64.05h-9.76c-5.08,0-7.46,1.4-7.46,5,0,3.36,2.65,5.53,7,5.53C531.47,74.55,535.74,71.54,536.14,67.48Z"/><path d="M596.16,62.09c0,11.13-6.78,18.75-17.09,18.75-5.76,0-10.1-2.38-12.75-6.71v20h-7.79V43.34h7.79v6.44c2.65-4.34,7-6.72,12.62-6.72C589.17,43.06,596.16,50.76,596.16,62.09Zm-7.87-.28c0-6.92-4.54-12-11-12s-11,5-11,12c0,7.21,4.55,12.18,11,12.18S588.29,69,588.29,61.81Z"/><polygon points="25.25 40.78 46.79 4.33 26.83 4.33 5.29 40.78 26.83 77.23 46.71 77.23 46.74 77.22 46.75 77.23 46.79 77.23 25.25 40.78" fill="none"/><polygon points="58.33 19.98 58.27 19.89 58.22 19.8 58.22 19.8 50.16 6.18 29.71 40.78 40.9 59.72 40.9 59.72 48.2 71.94 49.19 73.59 57.77 57.44 49.91 44.17 48.63 42.02 48.94 41.53 49.28 40.99 58.46 27.34 60.48 24.4 60.62 24.21 58.33 19.98 58.33 19.98" fill="none"/><polygon points="62.4 95.29 62.8 94.6 62.8 94.6 64.33 91.9 64.33 91.9 70.31 81.91 82.24 61.71 62.67 28.14 53.17 42.11 62.16 57.34 51.51 77.55 62.18 95.65 62.4 95.29" fill="none"/><polygon points="85.12 25.26 65.43 25.26 86.7 61.71 65.16 98.16 85.12 98.16 106.66 61.71 85.12 25.26" fill="none"/><path d="M47,77.64h0l-.25-.41h0l0,0h0l2.29-3.5.06-.1-1-1.65L40.89,59.72h0L29.71,40.78,50.16,6.18,58.22,19.8h0l.05.09.06.09h0l2.29,4.23,2.13-2.79h.89l-.39-.66h0l-.73-1.21L51.25.49H24.64L.84,40.78l23.8,40.29H49.12L47,77.67ZM63,21.09l0,0,0,0ZM46.74,77.22H26.83L5.29,40.78,26.83,4.33h20L25.25,40.78,46.79,77.23h0Z" fill="#66cbff"/><path d="M87.31,21.42H62.75l-2.13,2.79-.13.19-2,2.94L49.28,41l-.34.54-.31.49,1.27,2.15,7.87,13.27L49.19,73.59l-.06.1-2.29,3.5h0l0,0h0l.25.41h0v0l2.1,3.39h0l.27.48h0L61.48,102l.32,0H87.31l23.8-40.29ZM62.16,57.33l-9-15.22,9.5-14L82.24,61.71,70.31,81.9l-6,10h0L62.8,94.6h0l-.4.69-.22.36L51.51,77.55Zm23,40.83h-20L86.7,61.71,65.43,25.26H85.12l21.54,36.45Z" fill="#09f"/><polygon points="63 21.09 62.98 21.11 63.02 21.13 63 21.09" fill="#09f"/></svg>