<?xml version="1.0" encoding="UTF-8"?>
<svg width="128px" height="128px" viewBox="0 0 128 128" version="1.1" xmlns="http://www.w3.org/2000/svg" xmlns:xlink="http://www.w3.org/1999/xlink">
    <title>Slice</title>
    <g id="Page-1" stroke="none" stroke-width="1" fill="none" fill-rule="evenodd">
        <g id="honestswap_logo-21" transform="translate(0.000000, 5.000000)" fill-rule="nonzero">
            <g id="Group">
                <path d="M53.1696738,88.8656918 L53.1696738,88.8656918 L52.8817098,88.3934308 L52.8817098,88.3934308 L52.8817098,88.3934308 L52.8817098,88.3934308 L55.5194601,84.3619348 L55.5885714,84.2467492 L54.4367154,82.3461867 L46.1318335,68.2244319 L46.1318335,68.2244319 L33.2540832,46.408279 L56.8095388,6.55406074 L66.0934983,22.2423397 L66.0934983,22.2423397 L66.1510911,22.3460067 L66.2202025,22.4496738 L66.2202025,22.4496738 L68.8579528,27.3220247 L71.3114061,24.1083465 L72.3365579,24.1083465 L71.8873341,23.3481215 L71.8873341,23.3481215 L71.0464792,21.9543757 L58.0650619,0 L27.4141732,0 L0,46.408279 L27.4141732,92.8165579 L55.6116085,92.8165579 L53.1696738,88.9002475 L53.1696738,88.8656918 Z M52.8701912,88.3819123 L29.9367379,88.3819123 L5.12575928,46.408279 L29.9367379,4.42312711 L52.9738583,4.42312711 L28.1168054,46.408279 L52.927784,88.3934308 L52.927784,88.3934308 L52.8701912,88.3819123 Z" id="Shape" fill="#66CBFF"></path>
                <path d="M99.6009899,24.1083465 L71.3114061,24.1083465 L68.8579528,27.3220247 L68.7082115,27.5408774 L66.4044994,30.9273341 L55.7959055,46.6616873 L55.4042745,47.2836895 L55.0471991,47.848099 L56.5100562,50.3245894 L65.5751631,65.6097188 L55.6922385,84.2006749 L55.6231271,84.3158605 L52.9853768,88.3473566 L52.9853768,88.3473566 L52.9853768,88.3473566 L52.9853768,88.3473566 L53.2733408,88.8196175 L53.2733408,88.8196175 L53.2733408,88.8196175 L55.6922385,92.7244094 L55.6922385,92.7244094 L56.0032396,93.2773003 L56.0032396,93.2773003 L69.8485489,116.924904 L70.2171429,116.924904 L99.6009899,116.924904 L127.015163,70.5166254 L99.6009899,24.1083465 Z M70.631811,65.4714961 L60.2651069,47.9402475 L71.207739,31.8142632 L93.7610799,70.5166254 L80.0194376,93.7725984 L73.1083015,105.291159 L73.1083015,105.291159 L71.3689989,108.40117 L71.3689989,108.40117 L70.9082565,109.195951 L70.6548481,109.610619 L58.3645444,88.7620247 L70.631811,65.4714961 Z M97.1244994,112.501777 L74.0873791,112.501777 L98.8983577,70.5166254 L74.3983802,28.5314736 L97.0784252,28.5314736 L121.889404,70.5166254 L97.1244994,112.501777 Z" id="Shape" fill="#0099FF"></path>
            </g>
        </g>
    </g>
</svg>