<?xml version="1.0" encoding="UTF-8"?>
<svg width="64px" height="64px" viewBox="0 0 64 64" version="1.1" xmlns="http://www.w3.org/2000/svg" xmlns:xlink="http://www.w3.org/1999/xlink">
    <title>outlined</title>
    <g id="Page-1" stroke="none" stroke-width="1" fill="none" fill-rule="evenodd">
        <g id="outlined">
            <circle id="container" fill="#FFFFFF" cx="32" cy="32" r="32"></circle>
            <g id="icon" transform="translate(16.000000, 8.000000)" fill-rule="nonzero">
                <path d="M32.2885714,47.8328571 L21.3642857,42.7242857 L22.0328571,41.2928571 L30.72,45.3557143 L30.8014286,28.4442857 C30.8014286,28.3885714 30.8014286,22.7657143 26.79,18.7457143 C24.18,16.1228571 20.4771429,14.7942857 15.7885714,14.7942857 C14.4893177,14.7603085 13.1915348,14.9045066 11.9314286,15.2228571 L11.5242857,13.6928571 C12.9249976,13.3437887 14.3671435,13.1894791 15.81,13.2342857 C20.9528571,13.2342857 25.0157143,14.7214286 27.93,17.6528571 C32.3614286,22.11 32.3871429,28.1828571 32.383054,28.4528571 L32.2885714,47.8328571 Z" id="Path" fill="#0099FF"></path>
                <path d="M22.41,47.7942857 L11.6485714,42.6514286 L12.0771429,41.7471429 L10.9328571,41.7471429 L10.9328571,28.2385714 C10.81986,26.9617302 11.2105228,25.6913069 12.0214286,24.6985714 C12.99,23.6014286 14.4728571,23.04 16.4442857,23.04 C18.4157143,23.04 19.9671429,23.6014286 21.0385714,24.7071429 C21.9724226,25.7202173 22.4950267,27.0450646 22.5042857,28.4228571 L22.41,47.7942857 Z M12.5185714,41.3357143 L20.8371429,45.2957143 L20.9228571,28.3971429 C20.9056827,27.4346665 20.5385094,26.5114009 19.89,25.8 C19.1271429,25.02 17.97,24.6257143 16.4614286,24.6257143 C14.9528571,24.6257143 13.89,25.0028571 13.2342857,25.74 C12.7084317,26.4059078 12.4569893,27.2476267 12.5314286,28.0928571 L12.5314286,41.3357143 L12.5185714,41.3357143 Z" id="Shape" fill="#66CBFF"></path>
                <path d="M12.3814286,47.8971429 L0,41.7814286 L0,27.1585714 L0.132857143,-3.55271368e-15 L12.4928571,8.04 L12.3814286,28.7228571 L12.3814286,47.8971429 Z M1.58142857,40.8 L10.8,45.3557143 L10.8,28.7271429 L10.9071429,8.89714286 L1.70142857,2.89714286 L1.58142857,27.1542857 L1.58142857,40.8 Z" id="Shape" fill="#0099FF"></path>
            </g>
        </g>
    </g>
</svg>